<?xml version="1.0" encoding="UTF-8"?>
<svg id="Layer_1" xmlns="http://www.w3.org/2000/svg" version="1.1" viewBox="0 0 64 64">
  <!-- Generator: Adobe Illustrator 29.8.2, SVG Export Plug-In . SVG Version: 2.1.1 Build 3)  -->
  <defs>
    <style>
      .st0 {
        fill: #d0a85e;
      }

      .st1 {
        fill: #af855b;
      }

      .st2 {
        fill: #d2bba2;
      }

      .st3 {
        fill: #ffe496;
      }

      .st4 {
        fill: #be8e52;
      }

      .st5 {
        fill: #a0886f;
      }

      .st6 {
        fill: #d3af7f;
      }

      .st7 {
        fill: #b49461;
      }
    </style>
  </defs>
  <path class="st5" d="M19.6,50.14c-.81-.02-1.58-.4-2.08-1.05-.44-.57-.63-1.28-.54-2,.09-.72.46-1.35,1.03-1.79,3.42-2.63,5.77-5.53,7.88-9.69.82-1.63,1.44-3.19,1.93-4.9.13-.46.62-.73,1.08-.6.46.13.73.62.6,1.08-.52,1.82-1.17,3.47-2.05,5.2-2.23,4.41-4.73,7.49-8.37,10.29-.2.16-.33.38-.37.64-.03.25.03.51.19.71.21.27.54.41.88.37.17-.02.33-.09.47-.19.5-.39.99-.79,1.46-1.18.36-.31.91-.27,1.23.09.31.36.27.91-.09,1.23-.49.42-1,.84-1.53,1.25-.39.3-.85.48-1.33.54-.13.01-.25.02-.38.02Z"/>
  <path class="st4" d="M24.83,46.04c-.2,0-.4-.08-.57-.23-.35-.32-.38-.87-.05-1.23.42-.46.83-.94,1.22-1.42,1.36-1.7,2.58-3.64,3.73-5.91,2.15-4.26,2.78-7.59,3.73-12.63.05-.25,0-.51-.15-.72-.14-.21-.36-.36-.62-.4-.25-.05-.51,0-.72.15s-.36.36-.4.62c-.31,1.62-.57,3.02-.86,4.32-.1.47-.57.77-1.04.66-.47-.1-.77-.57-.66-1.04.28-1.28.54-2.66.85-4.26.13-.71.54-1.33,1.13-1.73s1.32-.56,2.03-.42c.71.13,1.32.54,1.73,1.13.41.6.56,1.32.42,2.03-.98,5.18-1.62,8.61-3.89,13.09-1.2,2.38-2.49,4.41-3.93,6.21-.41.52-.85,1.02-1.29,1.51-.18.19-.42.29-.66.28Z"/>
  <path class="st7" d="M19.52,53.47c-1.63-.04-3.19-.74-4.31-1.95-.33-.35-.3-.9.05-1.23.35-.33.9-.3,1.23.05.93,1.01,2.3,1.52,3.67,1.36.77-.09,1.5-.39,2.11-.86,2.23-1.71,4.11-3.55,5.76-5.6,1.51-1.88,2.85-4.01,4.1-6.49.73-1.46,1.34-2.87,1.84-4.32.16-.45.65-.69,1.11-.54.45.16.69.65.54,1.11-.53,1.53-1.16,3.01-1.93,4.54-1.31,2.59-2.71,4.81-4.3,6.79-1.73,2.16-3.71,4.09-6.05,5.89-.86.66-1.89,1.08-2.97,1.21-.28.03-.57.05-.85.04Z"/>
  <path class="st2" d="M12.39,43.74c-.15,0-.3-.04-.43-.13-.41-.25-.54-.79-.29-1.2.6-.98,1.36-1.83,2.28-2.53,2.34-1.8,3.98-3.72,5.46-6.4.23-.42.76-.57,1.18-.34.42.23.57.76.34,1.18-1.6,2.91-3.37,4.98-5.92,6.94-.74.57-1.37,1.26-1.85,2.06-.17.27-.46.42-.76.42Z"/>
  <path class="st4" d="M21.71,31.43c-.09,0-.19-.02-.28-.05-.45-.17-.68-.67-.51-1.12.77-2.08,1.17-4.18,1.83-7.67.38-2,1.37-3.78,2.86-5.16,1.46-1.34,3.27-2.18,5.24-2.41.95-.11,1.9-.08,2.84.1.77.15,1.52.38,2.22.71.44.2.63.72.42,1.16-.2.44-.72.63-1.16.42-.57-.27-1.18-.46-1.81-.58-.76-.14-1.54-.17-2.31-.08-1.6.19-3.08.87-4.27,1.96-1.22,1.12-2.02,2.57-2.33,4.2-.65,3.46-1.08,5.74-1.9,7.95-.13.36-.48.58-.84.57Z"/>
  <path class="st5" d="M38.52,42.42c-.29,0-.56-.16-.72-.42-1.27-2.1-1.59-4.2-.94-6.24.88-2.75,1.74-5.58,2.58-10.02.38-2-.05-4.03-1.2-5.71-.32-.46-.68-.89-1.09-1.27-.35-.33-.37-.88-.04-1.23.33-.35.88-.37,1.23-.04.5.47.95.99,1.33,1.56,1.41,2.07,1.93,4.56,1.47,7.02-.86,4.54-1.73,7.43-2.63,10.23-.49,1.54-.24,3.15.77,4.8.25.41.12.95-.29,1.2-.15.09-.31.13-.47.13Z"/>
  <path class="st1" d="M49.51,49.77c-.09,0-.18-.02-.27-.05-2-.71-4.85-1.85-7.08-3.28-.12-.08-1.25-.82-2.49-2.07-.34-.34-.33-.89.01-1.23.34-.34.89-.33,1.23.01,1.12,1.14,2.14,1.8,2.18,1.83,2.09,1.34,4.81,2.42,6.72,3.1.45.16.69.66.53,1.11-.13.36-.47.59-.84.58Z"/>
  <path class="st2" d="M50.05,46.46c-.09,0-.17-.02-.26-.05-1.63-.55-2.92-1.08-4.04-1.67-1.45-.76-2.62-1.61-3.57-2.6-1.33-1.38-2.11-3.15-2.15-4.87-.02-.79.28-2.16,1.11-5.04.13-.46.62-.73,1.08-.59.46.13.73.62.59,1.08-.5,1.72-1.06,3.79-1.05,4.52.03,1.29.64,2.63,1.67,3.7,1.9,1.97,4.69,3.08,6.91,3.83.46.15.7.65.55,1.1-.12.37-.47.6-.85.59Z"/>
  <path class="st1" d="M42.68,30.87c-.07,0-.15-.01-.23-.04-.46-.14-.72-.62-.59-1.08.4-1.35.8-2.73.92-3.4.54-2.88-.07-5.79-1.72-8.21-1.65-2.42-4.14-4.05-7.02-4.59-.58-.11-1.18-.17-1.77-.19-.52-.01-1.04.01-1.55.07-2.3.27-4.42,1.25-6.13,2.82-.31.29-.61.59-.88.91-.31.36-.86.4-1.23.09-.36-.31-.4-.86-.09-1.23.32-.37.66-.72,1.02-1.05,1.98-1.82,4.44-2.95,7.11-3.26.59-.07,1.2-.1,1.79-.08.69.02,1.38.09,2.05.22,3.33.63,6.22,2.52,8.13,5.32,1.91,2.8,2.62,6.18,1.99,9.51-.14.75-.54,2.11-.97,3.57-.11.39-.47.63-.86.62Z"/>
  <path class="st6" d="M12.51,38.8c-.25,0-.5-.12-.67-.34-.29-.38-.22-.93.16-1.22,2.21-1.7,3.63-3.46,5.05-6.27,1.28-2.53,1.64-4.43,2.5-9,.23-1.23.64-2.42,1.21-3.52.22-.43.75-.59,1.17-.37.43.22.59.75.37,1.17-.49.95-.85,1.97-1.05,3.04-.9,4.75-1.27,6.71-2.66,9.46-1.55,3.07-3.1,4.99-5.54,6.87-.16.13-.36.18-.55.18Z"/>
  <path class="st5" d="M12.61,33.82c-.19,0-.37-.07-.53-.19-.37-.3-.43-.85-.13-1.22.65-.8,1.25-1.76,1.88-3,1.06-2.11,1.35-3.62,2.2-8.11.65-3.43,2.35-6.49,4.92-8.85,2.51-2.3,5.62-3.73,8.99-4.13.33-.04.67-.07,1.01-.09.48-.03.89.34.92.82.03.48-.34.89-.82.92-.3.02-.6.04-.9.08-3.01.36-5.79,1.63-8.02,3.68-2.29,2.11-3.81,4.84-4.38,7.89-.88,4.67-1.18,6.24-2.35,8.57-.69,1.36-1.35,2.41-2.08,3.32-.18.22-.44.33-.7.32Z"/>
  <path class="st2" d="M51.16,39.87c-.07,0-.13-.01-.2-.03-1.43-.38-2.89-.82-3.66-1.73-.58-.68-.77-1.62-.56-2.78.16-.86.51-1.74.8-2.45.13-.33.26-.63.33-.87.44-1.36.88-2.82,1.16-4.31.45-2.4.42-4.8-.11-7.15-.1-.47.19-.93.66-1.04.47-.11.93.19,1.04.66.58,2.58.62,5.22.12,7.85-.3,1.59-.76,3.11-1.21,4.52-.1.3-.23.63-.37.99-.44,1.1-1.11,2.76-.53,3.44.48.56,2.03.97,2.78,1.17.46.12.74.6.62,1.06-.1.4-.47.66-.86.65Z"/>
  <path class="st0" d="M50.54,36.83s-.03,0-.04,0c-.48-.03-.84-.45-.81-.93.03-.51.4-1.65,1.01-3.44.08-.24.16-.45.19-.56.15-.46.64-.71,1.09-.56.46.15.71.64.56,1.09-.04.12-.11.33-.2.59-.22.64-.89,2.59-.92,3-.03.47-.43.82-.89.81Z"/>
  <path class="st1" d="M48.05,52.65c-.08,0-.17-.02-.25-.04-1.72-.56-3.11-1.09-4.36-1.66-1.35-.62-2.41-1.22-3.45-1.94-1.45-1-2.65-2.16-3.67-3.54-.11-.15-.22-.29-.32-.43-.34-.45-.67-.88-1.03-1.45-.02.04-.04.09-.05.13-.02.06-.04.11-.08.17-1.3,2.15-2.36,3.65-3.78,5.37-.31.37-.86.42-1.23.11-.37-.31-.42-.86-.11-1.23,1.35-1.62,2.36-3.05,3.59-5.08.15-.41.6-1.33,1.48-1.44.42-.05,1.05.08,1.62.97.34.54.66.96.99,1.39.11.14.22.29.33.44.91,1.22,1.98,2.25,3.26,3.15.96.67,1.91,1.2,3.18,1.78,1.19.55,2.52,1.05,4.17,1.59.46.15.71.64.56,1.1-.12.38-.47.61-.85.6Z"/>
  <path class="st6" d="M19.77,56.77c-.46-.01-.95-.07-1.45-.19-.47-.1-.76-.57-.66-1.04.1-.47.57-.76,1.04-.66.78.17,1.46.19,2.08.06,3.14-.68,5.13-2.61,7.23-4.86.33-.35.88-.37,1.23-.04.35.33.37.88.04,1.23-2.22,2.38-4.51,4.59-8.14,5.38-.44.1-.9.14-1.38.13Z"/>
  <path class="st2" d="M46.15,55.4c-.11,0-.22-.03-.33-.07-.28-.13-.77-.31-1.29-.51-.6-.23-1.22-.47-1.67-.66-.51-.22-.93-.41-1.32-.6-.43-.2-.62-.72-.42-1.16.2-.43.72-.62,1.16-.42.37.18.78.36,1.27.58.41.18,1.01.41,1.59.63.54.21,1.05.4,1.37.54.44.19.64.71.45,1.15-.15.33-.48.53-.82.52Z"/>
  <path class="st0" d="M22.03,59.87c-.39,0-.74-.28-.83-.68-.1-.47.19-.93.66-1.04,1.05-.23,1.93-.59,2.7-1.09,1.76-1.15,4.57-3.41,6.06-5.07,1.1-1.23,2.66-3.21,3.73-5.11.14-.26.41-.42.7-.44.29-.02.58.11.75.35,1.29,1.72,2.57,2.94,4.16,3.94.41.26.53.8.27,1.2-.26.41-.8.53-1.2.27-1.42-.9-2.65-1.99-3.82-3.37-1.06,1.66-2.34,3.26-3.29,4.33-1.6,1.78-4.51,4.12-6.4,5.36-.95.62-2.02,1.06-3.27,1.34-.07.02-.14.02-.21.02Z"/>
  <path class="st5" d="M26.48,61.71c-.26,0-.52-.13-.69-.36-.28-.39-.19-.93.2-1.21,1.04-.75,1.94-1.49,2.73-2.14,2.33-1.92,4.18-3.44,7.57-3.61,2.37-.12,5.31.52,8.06,1.75.44.2.63.71.44,1.15-.2.44-.71.63-1.15.44-2.51-1.12-5.15-1.71-7.26-1.6-2.82.14-4.31,1.37-6.56,3.22-.81.67-1.73,1.42-2.82,2.21-.16.12-.35.17-.53.16Z"/>
  <path class="st7" d="M31.06,62.32c-.24,0-.48-.11-.65-.31-.31-.37-.26-.92.11-1.23,2.4-2.02,3.3-2.78,5.74-3.09,1.5-.19,3.05.07,5.19.88.45.17.67.67.5,1.12-.17.45-.67.67-1.12.5-1.84-.7-3.14-.93-4.34-.78-1.87.24-2.44.68-4.84,2.7-.17.14-.38.21-.58.2Z"/>
  <path class="st3" d="M34.74,53.44c-.41,0-.76-.3-.84-.72-.08-.47.23-.92.71-1.01.17-.03,1.07-.18,1.64-.14.48.03.84.45.81.93-.03.48-.45.84-.93.81-.27-.02-.88.06-1.22.12-.06.01-.11.01-.17.01Z"/>
  <path class="st7" d="M35.49,32.87c-.07,0-.13-.01-.2-.03-.46-.12-.74-.6-.62-1.06.53-2.02.93-4.11,1.39-6.54.21-1.13-.03-2.27-.67-3.22-.65-.95-1.62-1.59-2.75-1.8-.43-.08-.87-.1-1.3-.05-.48.06-.91-.28-.97-.76-.06-.48.28-.91.76-.97.61-.07,1.22-.05,1.83.06,1.58.3,2.95,1.2,3.86,2.53.91,1.33,1.25,2.94.95,4.52-.46,2.45-.86,4.57-1.41,6.66-.1.4-.47.66-.86.65Z"/>
  <path class="st0" d="M14.44,49.21c-.41,0-.76-.3-.84-.72-.39-2.23.48-4.46,2.26-5.84,3-2.3,5.07-4.86,6.93-8.55,1.7-3.37,2.2-6,3.1-10.77.24-1.29.88-2.44,1.84-3.32.35-.33.9-.3,1.23.05.33.35.3.9-.05,1.23-.69.63-1.14,1.45-1.31,2.36-.93,4.92-1.44,7.64-3.26,11.23-1.99,3.94-4.21,6.68-7.43,9.15-1.27.98-1.89,2.57-1.61,4.16.08.47-.23.92-.71,1.01-.06.01-.12.01-.17.01Z"/>
  <path class="st6" d="M51.56,43.31c-.08,0-.16-.01-.24-.04-2.12-.66-4.77-1.49-6.6-3.35-.95-.97-1.37-2.24-1.23-3.77.11-1.23.56-2.48.95-3.59.17-.48.33-.93.46-1.35.46-1.56.86-2.9,1.07-3.84.11-.47.58-.76,1.04-.65.47.11.76.58.65,1.04-.23.99-.63,2.35-1.1,3.94-.14.46-.31.94-.49,1.44-.87,2.44-1.39,4.26-.12,5.55,1.52,1.55,3.83,2.27,5.87,2.91.46.14.71.63.57,1.09-.12.38-.47.62-.85.61Z"/>
  <path class="st1" d="M47.15,26.03s-.02,0-.03,0c-.48-.03-.85-.44-.82-.92.19-3.18-.66-6.26-2.47-8.92-2.16-3.16-5.42-5.3-9.18-6.01-.37-.07-.74-.12-1.11-.16-.48-.05-.82-.48-.77-.96.05-.48.48-.82.96-.77.42.05.83.11,1.24.18,4.22.8,7.87,3.19,10.3,6.74,2.03,2.97,2.99,6.43,2.77,10-.03.47-.42.83-.89.82Z"/>
  <path class="st7" d="M48.83,18.12c-.34,0-.66-.2-.8-.53-.49-1.16-1.1-2.28-1.83-3.32-1.1-1.58-2.44-2.96-3.96-4.1-.39-.29-.47-.83-.18-1.22.29-.39.83-.47,1.22-.18,1.68,1.25,3.14,2.76,4.35,4.5.8,1.15,1.48,2.37,2.01,3.65.19.44-.02.95-.47,1.14-.11.05-.22.07-.34.07Z"/>
  <path class="st0" d="M16.16,15.03c-.16,0-.33-.05-.48-.14-.4-.27-.51-.8-.25-1.21.83-1.26,1.82-2.42,2.93-3.47,1.49-1.4,3.17-2.54,5.01-3.41,1.84-.87,3.8-1.44,5.82-1.7.91-.12,1.83-.17,2.75-.16,1.05.01,2.11.11,3.14.3,2.04.36,3.98,1.03,5.79,2,.42.23.58.75.36,1.18-.23.42-.75.58-1.18.36-1.64-.88-3.41-1.49-5.27-1.82-.94-.17-1.91-.26-2.86-.27-.83-.01-1.67.04-2.5.14-3.72.48-7.13,2.09-9.86,4.65-1.01.95-1.91,2.02-2.67,3.16-.17.25-.44.39-.73.39Z"/>
  <path class="st1" d="M12.28,27.45c-.08,0-.16-.01-.24-.03-.46-.13-.73-.62-.59-1.08.32-1.12.61-2.68,1.08-5.35.28-1.58.75-3.12,1.4-4.57.2-.44.71-.63,1.15-.44.44.2.63.71.44,1.15-.59,1.32-1.02,2.72-1.28,4.16-.49,2.73-.78,4.33-1.12,5.53-.11.38-.46.63-.84.63Z"/>
  <path class="st0" d="M22.41,5.5c-.33,0-.64-.18-.79-.5-.2-.43-.02-.95.42-1.16,2.12-1,4.42-1.66,6.83-1.97,1.07-.14,2.15-.2,3.22-.18,1.23.02,2.47.13,3.69.35.59.1,1.18.24,1.75.39.46.12.74.6.62,1.07-.12.46-.6.74-1.07.62-.53-.14-1.07-.26-1.61-.36-1.12-.2-2.27-.31-3.41-.32-.99-.01-1.99.04-2.98.17-2.23.29-4.36.9-6.31,1.82-.12.06-.25.08-.37.08Z"/>
  <path class="st1" d="M46.97,9.66c-.22,0-.43-.08-.6-.24-1.95-1.88-4.16-3.35-6.55-4.37-.44-.19-.65-.7-.46-1.14.19-.44.7-.65,1.14-.46,2.59,1.11,4.97,2.69,7.07,4.72.35.33.36.88.02,1.23-.17.18-.4.27-.63.27Z"/>
</svg>