<svg xmlns="http://www.w3.org/2000/svg" width="480" height="620" viewBox="0 0 480 620">
  <defs>
    <linearGradient id="bannerGrad" x1="0%" y1="0%" x2="100%" y2="100%">
      <stop offset="0%" style="stop-color:#1e3a5f"/>
      <stop offset="100%" style="stop-color:#3a5f8a"/>
    </linearGradient>
    <linearGradient id="bannerOverlay" x1="0%" y1="0%" x2="0%" y2="100%">
      <stop offset="0%" style="stop-color:rgba(0,0,0,0)"/>
      <stop offset="100%" style="stop-color:rgba(0,0,0,0.7)"/>
    </linearGradient>
    <linearGradient id="ctaGold" x1="0%" y1="0%" x2="100%" y2="0%">
      <stop offset="0%" style="stop-color:#c9a961"/>
      <stop offset="100%" style="stop-color:#e0c070"/>
    </linearGradient>
    <clipPath id="cardClip">
      <rect width="480" height="620" rx="24"/>
    </clipPath>
  </defs>

  <!-- Card background -->
  <rect width="480" height="620" rx="24" fill="white" filter="drop-shadow(0 8px 24px rgba(0,0,0,0.18))"/>

  <!-- === TOP BANNER === -->
  <rect width="480" height="170" fill="url(#bannerGrad)" clip-path="url(#cardClip)"/>
  <!-- Silhouettes row -->
  <g opacity="0.35" fill="#c9d4e0">
    <ellipse cx="48" cy="90" rx="22" ry="35"/><ellipse cx="48" cy="45" rx="16" ry="16"/>
    <ellipse cx="100" cy="88" rx="22" ry="35"/><ellipse cx="100" cy="43" rx="16" ry="16"/>
    <ellipse cx="155" cy="85" rx="24" ry="38"/><ellipse cx="155" cy="38" rx="18" ry="18"/>
    <ellipse cx="214" cy="80" rx="26" ry="42"/><ellipse cx="214" cy="32" rx="20" ry="20"/>
    <ellipse cx="272" cy="85" rx="24" ry="38"/><ellipse cx="272" cy="38" rx="18" ry="18"/>
    <ellipse cx="328" cy="88" rx="22" ry="35"/><ellipse cx="328" cy="43" rx="16" ry="16"/>
    <ellipse cx="382" cy="90" rx="22" ry="35"/><ellipse cx="382" cy="45" rx="16" ry="16"/>
    <ellipse cx="434" cy="92" rx="20" ry="32"/><ellipse cx="434" cy="48" rx="14" ry="14"/>
  </g>
  <rect width="480" height="170" fill="url(#bannerOverlay)" clip-path="url(#cardClip)"/>
  <!-- NEXT PROGRAM text -->
  <text x="24" y="155" font-family="Arial Black, sans-serif" font-weight="900" font-size="30" fill="white" letter-spacing="2">NEXT PROGRAM</text>

  <!-- === PROGRAM CARDS GRID (6 cards, 2 cols) === -->
  <!-- Row 1 -->
  <!-- Card 1 -->
  <rect x="12" y="180" width="218" height="100" rx="12" fill="#7a93aa"/>
  <rect x="12" y="180" width="80" height="100" rx="12" fill="#8da5b8"/>
  <rect x="92" y="180" width="2" height="100" fill="#7a93aa"/>
  <!-- person silhouette -->
  <ellipse cx="52" cy="225" rx="18" ry="22" fill="#b0c4d4" opacity="0.6"/>
  <ellipse cx="52" cy="196" rx="13" ry="13" fill="#b0c4d4" opacity="0.6"/>
  <text x="98" y="198" font-family="Arial, sans-serif" font-size="9" fill="rgba(255,255,255,0.8)">12 กุมภาพันธ์ 69</text>
  <text x="98" y="213" font-family="Arial Black, sans-serif" font-weight="900" font-size="11" fill="#C9A961">LISTENING</text>
  <text x="98" y="227" font-family="Arial Black, sans-serif" font-weight="900" font-size="11" fill="#C9A961">INTELLIGENCE</text>
  <text x="98" y="242" font-family="Arial, sans-serif" font-size="8" fill="rgba(255,255,255,0.7)">ศาสตร์ที่ทำให้คุณฟังดีขึ้น</text>
  <text x="98" y="256" font-family="Arial, sans-serif" font-weight="700" font-size="9" fill="white">ครูลูกแก้ว วริศรา</text>

  <!-- Card 2 -->
  <rect x="250" y="180" width="218" height="100" rx="12" fill="#7a93aa"/>
  <rect x="250" y="180" width="80" height="100" rx="12" fill="#8da5b8"/>
  <ellipse cx="290" cy="225" rx="18" ry="22" fill="#b0c4d4" opacity="0.6"/>
  <ellipse cx="290" cy="196" rx="13" ry="13" fill="#b0c4d4" opacity="0.6"/>
  <text x="336" y="198" font-family="Arial, sans-serif" font-size="9" fill="rgba(255,255,255,0.8)">26 มีนาคม 69</text>
  <text x="336" y="213" font-family="Arial Black, sans-serif" font-weight="900" font-size="10" fill="#C9A961">THE MAGIC OF</text>
  <text x="336" y="226" font-family="Arial Black, sans-serif" font-weight="900" font-size="10" fill="#C9A961">STORYTELLING</text>
  <text x="336" y="241" font-family="Arial, sans-serif" font-size="8" fill="rgba(255,255,255,0.7)">เล่าเรื่องโน้มน้าวใจ</text>
  <text x="336" y="256" font-family="Arial, sans-serif" font-weight="700" font-size="9" fill="white">ครูลูกแก้ว วริศรา</text>

  <!-- Row 2 -->
  <!-- Card 3 -->
  <rect x="12" y="292" width="218" height="100" rx="12" fill="#7a93aa"/>
  <rect x="12" y="292" width="80" height="100" rx="12" fill="#8da5b8"/>
  <ellipse cx="52" cy="337" rx="18" ry="22" fill="#b0c4d4" opacity="0.6"/>
  <ellipse cx="52" cy="308" rx="13" ry="13" fill="#b0c4d4" opacity="0.6"/>
  <text x="98" y="310" font-family="Arial, sans-serif" font-size="9" fill="rgba(255,255,255,0.8)">26 กุมภาพันธ์ 69</text>
  <text x="98" y="325" font-family="Arial Black, sans-serif" font-weight="900" font-size="11" fill="#C9A961">BRAIN HACKER:</text>
  <text x="98" y="339" font-family="Arial Black, sans-serif" font-weight="900" font-size="9" fill="#C9A961">ANALYTICAL THINKING</text>
  <text x="98" y="354" font-family="Arial, sans-serif" font-size="8" fill="rgba(255,255,255,0.7)">ปลดล็อกศักยภาพสมอง</text>
  <text x="98" y="369" font-family="Arial, sans-serif" font-weight="700" font-size="9" fill="white">โค้ชเกด ดร.สุกฤตา</text>

  <!-- Card 4 -->
  <rect x="250" y="292" width="218" height="100" rx="12" fill="#7a93aa"/>
  <rect x="250" y="292" width="80" height="100" rx="12" fill="#8da5b8"/>
  <ellipse cx="290" cy="337" rx="18" ry="22" fill="#b0c4d4" opacity="0.6"/>
  <ellipse cx="290" cy="308" rx="13" ry="13" fill="#b0c4d4" opacity="0.6"/>
  <text x="336" y="310" font-family="Arial, sans-serif" font-size="9" fill="rgba(255,255,255,0.8)">25 เมษายน 69</text>
  <text x="336" y="325" font-family="Arial Black, sans-serif" font-weight="900" font-size="11" fill="#C9A961">CRITICAL</text>
  <text x="336" y="339" font-family="Arial Black, sans-serif" font-weight="900" font-size="11" fill="#C9A961">THINKING</text>
  <text x="336" y="354" font-family="Arial, sans-serif" font-size="8" fill="rgba(255,255,255,0.7)">คิดอย่างมีวิจารณญาณ</text>
  <text x="336" y="369" font-family="Arial, sans-serif" font-weight="700" font-size="9" fill="white">โค้ชเกด ดร.สุกฤตา</text>

  <!-- Row 3 -->
  <!-- Card 5 -->
  <rect x="12" y="404" width="218" height="100" rx="12" fill="#7a93aa"/>
  <rect x="12" y="404" width="80" height="100" rx="12" fill="#8da5b8"/>
  <ellipse cx="52" cy="449" rx="18" ry="22" fill="#b0c4d4" opacity="0.6"/>
  <ellipse cx="52" cy="420" rx="13" ry="13" fill="#b0c4d4" opacity="0.6"/>
  <text x="98" y="422" font-family="Arial, sans-serif" font-size="9" fill="rgba(255,255,255,0.8)">5 มีนาคม 69</text>
  <text x="98" y="437" font-family="Arial Black, sans-serif" font-weight="900" font-size="11" fill="#C9A961">COACHING</text>
  <text x="98" y="451" font-family="Arial Black, sans-serif" font-weight="900" font-size="11" fill="#C9A961">LEADERSHIP</text>
  <text x="98" y="466" font-family="Arial, sans-serif" font-size="8" fill="rgba(255,255,255,0.7)">ภาวะผู้นำแบบโค้ช</text>
  <text x="98" y="481" font-family="Arial, sans-serif" font-weight="700" font-size="9" fill="white">โค้ชยุ้ย ชวธิดา</text>

  <!-- Card 6 -->
  <rect x="250" y="404" width="218" height="100" rx="12" fill="#7a93aa"/>
  <rect x="250" y="404" width="80" height="100" rx="12" fill="#8da5b8"/>
  <ellipse cx="290" cy="449" rx="18" ry="22" fill="#b0c4d4" opacity="0.6"/>
  <ellipse cx="290" cy="420" rx="13" ry="13" fill="#b0c4d4" opacity="0.6"/>
  <text x="336" y="422" font-family="Arial, sans-serif" font-size="9" fill="rgba(255,255,255,0.8)">30 เมษายน 69</text>
  <text x="336" y="437" font-family="Arial Black, sans-serif" font-weight="900" font-size="11" fill="#C9A961">KEY MESSAGE:</text>
  <text x="336" y="451" font-family="Arial Black, sans-serif" font-weight="900" font-size="11" fill="#C9A961">CLEAR MESSAGE</text>
  <text x="336" y="466" font-family="Arial, sans-serif" font-size="8" fill="rgba(255,255,255,0.7)">สื่อสารอย่างชัดเจน</text>
  <text x="336" y="481" font-family="Arial, sans-serif" font-weight="700" font-size="9" fill="white">ครูหม่อน ณัฐชา</text>

  <!-- === CTA BAR === -->
  <rect x="0" y="516" width="480" height="104" fill="url(#ctaGold)" clip-path="url(#cardClip)"/>
  <text x="24" y="545" font-family="Arial, sans-serif" font-weight="700" font-size="13" fill="#1a1a1a">สอบถามเพิ่มเติม</text>
  <!-- Phone icon + number -->
  <circle cx="34" cy="567" r="9" fill="rgba(0,0,0,0.15)"/>
  <text x="24" y="571" font-family="Arial, sans-serif" font-size="9" fill="white">📞</text>
  <text x="48" y="571" font-family="Arial, sans-serif" font-weight="700" font-size="12" fill="#1a1a1a">080-265-6266</text>
  <!-- Line -->
  <text x="24" y="591" font-family="Arial, sans-serif" font-size="11" fill="#1a1a1a">@ innerpower.academy</text>
  <!-- Logo placeholder -->
  <circle cx="440" cy="568" r="28" fill="rgba(0,0,0,0.12)"/>
  <text x="440" y="574" text-anchor="middle" font-family="Arial Black, sans-serif" font-size="8" font-weight="900" fill="#1a1a1a">INNER</text>
  <text x="440" y="584" text-anchor="middle" font-family="Arial Black, sans-serif" font-size="7" font-weight="900" fill="#1a1a1a">POWER</text>

  <!-- Card border/shadow rim -->
  <rect width="480" height="620" rx="24" fill="none" stroke="#e5e7eb" stroke-width="1.5"/>
</svg>
